<svg width="17" height="32" viewBox="0 0 17 32" fill="none" xmlns="http://www.w3.org/2000/svg">
<path d="M0.706421 31.4044V0.848729C2.52568 -0.102883 6.25267 -0.449726 6.3744 0.848732C6.77743 5.14778 6.60924 9.34174 6.41253 11.4494C7.37916 11.4494 8.78197 11.1144 10.1926 8.69619C11.9559 5.67343 9.43885 0.954941 10.7726 0.528151C12.4519 -0.009229 14.8127 0.400912 15.7363 0.848729C14.9522 10.9204 15.9423 14.1565 9.5985 14.1201C17.2042 14.8855 16.324 20.6217 16.324 32C14.1073 31.3283 11.5232 31.1979 10.6276 31.002C11.2993 21.0604 11.3526 18.4108 7.17178 19.741C7.97785 24.1072 8.30766 29.2371 7.68921 31.002C3.4745 31.4044 0.706421 32.6731 0.706421 31.4044Z" fill="#EF9731"/>
</svg>
