<svg width="70" height="40" viewBox="0 0 70 40" fill="none" xmlns="http://www.w3.org/2000/svg">
<path d="M52.5936 34.3427V0.928138C54.5831 -0.112509 58.6588 -0.491804 58.7919 0.928142C59.2327 5.62942 59.0487 10.2158 58.8336 12.5206C59.8907 12.5206 61.4248 12.1543 62.9674 9.50984C64.8956 6.20425 62.1431 1.04429 63.6016 0.577566C65.438 -0.0100925 68.0197 0.438423 69.0297 0.928138C68.1723 11.9421 69.255 15.481 62.3177 15.4412C70.6349 16.2783 69.6725 22.5511 69.6725 34.994C67.2484 34.2594 64.4225 34.1169 63.443 33.9026C64.1776 23.0309 64.2358 20.1334 59.6639 21.588C60.5454 26.3628 60.9061 31.9726 60.2298 33.9026C55.6207 34.3427 52.5936 35.7301 52.5936 34.3427Z" fill="#EF9731"/>
<path fill-rule="evenodd" clip-rule="evenodd" d="M16.7046 5.2747V29.4372C16.8506 37.5401 23.3114 38.861 30.1363 39.949C32.9124 40.3916 33.2016 37.9103 33.6352 34.1898C33.6606 33.9724 33.6864 33.7507 33.7132 33.5251C34.0021 31.0984 33.748 13.6627 33.7132 12.9396C33.2753 3.81473 21.9605 0.164808 18.6756 1.40578C17.1807 1.9705 16.7046 4.32573 16.7046 5.2747ZM22.6175 27.0283V9.87361C22.6175 5.7857 26.4134 6.22369 27.5084 9.87361C28.6034 13.5235 28.3114 32.5032 27.5084 33.5251C26.7054 34.5471 22.6175 33.0871 22.6175 27.0283Z" fill="#4E4E4E"/>
<path fill-rule="evenodd" clip-rule="evenodd" d="M51.8836 4.59908V28.7616C51.2009 34.644 48.3813 35.6447 43.1365 37.506C41.747 37.9991 40.1872 38.5526 38.4519 39.2734C35.1068 40.6627 34.8749 37.5816 34.8749 32.8495C34.8749 32.2772 34.873 30.8836 34.8706 29.0755C34.8625 23.1629 34.8484 12.8177 34.8749 12.2639C35.3129 3.13911 45.9707 0.730162 49.9126 0.730164C51.5106 0.730164 51.8836 3.65011 51.8836 4.59908ZM45.9707 26.3526V9.19799C45.9707 5.11008 42.1748 5.54807 41.0798 9.19799C39.9848 12.8479 40.2768 31.8275 41.0798 32.8495C41.8828 33.8715 45.9707 32.4115 45.9707 26.3526Z" fill="#4E4E4E"/>
<path fill-rule="evenodd" clip-rule="evenodd" d="M0.35321 35.9051V1.42576L0.87191 1.35949C13.4381 -0.246562 16.5701 -0.646852 15.9335 9.63074C15.6308 14.5157 13.1397 17.1627 11.1674 18.1436C15.3918 17.1791 16.4033 21.3954 16.5788 26.2251C16.7486 30.8971 15.9335 35.5364 13.9975 36.5505C12.8828 36.8105 11.7682 36.5914 10.3035 36.3036C8.13393 35.8771 5.19637 35.2997 0.35321 35.9051ZM5.97685 6.49625V13.7793C10.402 12.7468 11.0781 8.86248 10.863 7.0494C10.0517 4.98432 7.26752 5.82019 5.97685 6.49625ZM5.97685 29.4518V23.5515C7.78994 23.1213 11.4161 23.0537 11.4161 26.2251C11.2317 27.7923 9.88574 30.6318 5.97685 29.4518Z" fill="#4E4E4E"/>
</svg>
